<mxfile host="app.diagrams.net" modified="2022-12-01T06:08:17.130Z" agent="5.0 (Windows NT 10.0; Win64; x64) AppleWebKit/537.36 (KHTML, like Gecko) Chrome/107.0.0.0 Safari/537.36" version="20.6.0" etag="mxpPEaxIOKjt2D5EIZBx" type="github">
  <diagram id="NavnCvRItXsbccLbItMj" name="Page-1">
    <mxGraphModel dx="1422" dy="794" grid="1" gridSize="10" guides="1" tooltips="1" connect="1" arrows="1" fold="1" page="1" pageScale="1" pageWidth="850" pageHeight="1100" math="0" shadow="0">
      <root>
        <mxCell id="0" />
        <mxCell id="1" parent="0" />
        <mxCell id="KL5Xce6iUJnAnncW0CI2-6" value="&lt;p style=&quot;outline: none; margin: 0px 0px 1em; padding: 0px; overflow-wrap: break-word; font-size: 14px; line-height: 1.4; box-sizing: border-box; -webkit-tap-highlight-color: transparent; text-align: start; color: rgb(51, 51, 51); font-family: LearnosityMath, &amp;quot;Helvetica Neue&amp;quot;, Helvetica, Arial, sans-serif; font-style: normal; font-variant-ligatures: normal; font-variant-caps: normal; font-weight: 400; letter-spacing: normal; orphans: 2; text-indent: 0px; text-transform: none; widows: 2; word-spacing: 0px; -webkit-text-stroke-width: 0px; background-color: rgb(255, 255, 255); text-decoration-thickness: initial; text-decoration-style: initial; text-decoration-color: initial;&quot;&gt;&lt;br&gt;&lt;/p&gt;&lt;p style=&quot;outline: none; margin: 0px 0px 1em; padding: 0px; overflow-wrap: break-word; font-size: 14px; line-height: 1.4; box-sizing: border-box; -webkit-tap-highlight-color: transparent; text-align: start; color: rgb(51, 51, 51); font-family: LearnosityMath, &amp;quot;Helvetica Neue&amp;quot;, Helvetica, Arial, sans-serif; font-style: normal; font-variant-ligatures: normal; font-variant-caps: normal; font-weight: 400; letter-spacing: normal; orphans: 2; text-indent: 0px; text-transform: none; widows: 2; word-spacing: 0px; -webkit-text-stroke-width: 0px; background-color: rgb(255, 255, 255); text-decoration-thickness: initial; text-decoration-style: initial; text-decoration-color: initial;&quot;&gt;&amp;nbsp;&lt;span&gt;&amp;nbsp;&lt;/span&gt;&lt;span style=&quot;outline: none; margin: 0px; padding: 0px; overflow-wrap: break-word; box-sizing: border-box; -webkit-tap-highlight-color: transparent; font-size: 1.5em;&quot;&gt;&lt;/span&gt;&lt;span style=&quot;outline: none; margin: 0px; padding: 0px; overflow-wrap: break-word; box-sizing: border-box; -webkit-tap-highlight-color: transparent; font-size: 1.8em;&quot;&gt;&amp;nbsp; &amp;nbsp;0&amp;nbsp; &amp;nbsp; 1&amp;nbsp; &amp;nbsp;1&amp;nbsp; &amp;nbsp;1&amp;nbsp; &amp;nbsp;0&amp;nbsp; &amp;nbsp;0&amp;nbsp; &amp;nbsp;0&amp;nbsp; &amp;nbsp;0&lt;br style=&quot;outline: none; margin: 0px; padding: 0px; overflow-wrap: break-word; box-sizing: border-box; -webkit-tap-highlight-color: transparent;&quot;&gt;&amp;nbsp; &amp;nbsp; 1&amp;nbsp; &amp;nbsp; 0&amp;nbsp; &amp;nbsp;0&amp;nbsp; &amp;nbsp;0&amp;nbsp; &amp;nbsp;0&amp;nbsp; &amp;nbsp;1&amp;nbsp; &amp;nbsp;0&amp;nbsp; &amp;nbsp;0&lt;br style=&quot;outline: none; margin: 0px; padding: 0px; overflow-wrap: break-word; box-sizing: border-box; -webkit-tap-highlight-color: transparent;&quot;&gt;&amp;nbsp; &amp;nbsp; 1&amp;nbsp; &amp;nbsp; 0&amp;nbsp; &amp;nbsp;0&amp;nbsp; &amp;nbsp;0&amp;nbsp; &amp;nbsp;0&amp;nbsp; &amp;nbsp;1&amp;nbsp; &amp;nbsp;1&amp;nbsp; &amp;nbsp;0&lt;br style=&quot;outline: none; margin: 0px; padding: 0px; overflow-wrap: break-word; box-sizing: border-box; -webkit-tap-highlight-color: transparent;&quot;&gt;&amp;nbsp; &amp;nbsp; 1&amp;nbsp; &amp;nbsp; 0&amp;nbsp; &amp;nbsp;0&amp;nbsp; &amp;nbsp;0&amp;nbsp; &amp;nbsp;1&amp;nbsp; &amp;nbsp;0&amp;nbsp; &amp;nbsp;1&amp;nbsp; &amp;nbsp;0&lt;br style=&quot;outline: none; margin: 0px; padding: 0px; overflow-wrap: break-word; box-sizing: border-box; -webkit-tap-highlight-color: transparent;&quot;&gt;&amp;nbsp; &amp;nbsp; 0&amp;nbsp; &amp;nbsp; 0&amp;nbsp; &amp;nbsp;0&amp;nbsp; &amp;nbsp;1&amp;nbsp; &amp;nbsp;0&amp;nbsp; &amp;nbsp;0&amp;nbsp; &amp;nbsp;0&amp;nbsp; &amp;nbsp;1&lt;br style=&quot;outline: none; margin: 0px; padding: 0px; overflow-wrap: break-word; box-sizing: border-box; -webkit-tap-highlight-color: transparent;&quot;&gt;&amp;nbsp; &amp;nbsp; 0&amp;nbsp; &amp;nbsp; 1&amp;nbsp; &amp;nbsp;1&amp;nbsp; &amp;nbsp;0&amp;nbsp; &amp;nbsp;0&amp;nbsp; &amp;nbsp;0&amp;nbsp; &amp;nbsp;0&amp;nbsp; &amp;nbsp;0&lt;br style=&quot;outline: none; margin: 0px; padding: 0px; overflow-wrap: break-word; box-sizing: border-box; -webkit-tap-highlight-color: transparent;&quot;&gt;&amp;nbsp; &amp;nbsp; 0&amp;nbsp; &amp;nbsp; 0&amp;nbsp; &amp;nbsp;1&amp;nbsp; &amp;nbsp;1&amp;nbsp; &amp;nbsp;0&amp;nbsp; &amp;nbsp;0&amp;nbsp; &amp;nbsp;0&amp;nbsp; &amp;nbsp;1&lt;br style=&quot;outline: none; margin: 0px; padding: 0px; overflow-wrap: break-word; box-sizing: border-box; -webkit-tap-highlight-color: transparent;&quot;&gt;&amp;nbsp; &amp;nbsp; 0&amp;nbsp; &amp;nbsp; 0&amp;nbsp; &amp;nbsp;0&amp;nbsp; &amp;nbsp;0&amp;nbsp; &amp;nbsp;1&amp;nbsp; &amp;nbsp;0&amp;nbsp; &amp;nbsp;1&amp;nbsp; &amp;nbsp;0&amp;nbsp;&amp;nbsp;&lt;/span&gt;&lt;/p&gt;" style="text;whiteSpace=wrap;html=1;" vertex="1" parent="1">
          <mxGeometry x="260" y="150" width="320" height="330" as="geometry" />
        </mxCell>
        <mxCell id="KL5Xce6iUJnAnncW0CI2-9" value="&lt;font style=&quot;font-size: 17px;&quot;&gt;0&lt;span style=&quot;white-space: pre;&quot;&gt;	&lt;/span&gt;1&lt;span style=&quot;white-space: pre;&quot;&gt;	&lt;/span&gt;2&lt;span style=&quot;white-space: pre;&quot;&gt;	&lt;/span&gt;3&lt;span style=&quot;white-space: pre;&quot;&gt;	&lt;/span&gt;4&lt;span style=&quot;white-space: pre;&quot;&gt;	&lt;/span&gt;5&lt;span style=&quot;white-space: pre;&quot;&gt;	&lt;/span&gt;6&lt;span style=&quot;white-space: pre;&quot;&gt;	&lt;/span&gt;7&lt;/font&gt;" style="text;html=1;align=center;verticalAlign=middle;resizable=0;points=[];autosize=1;strokeColor=none;fillColor=none;" vertex="1" parent="1">
          <mxGeometry x="280" y="120" width="300" height="30" as="geometry" />
        </mxCell>
        <mxCell id="KL5Xce6iUJnAnncW0CI2-16" value="0" style="text;html=1;align=center;verticalAlign=middle;resizable=0;points=[];autosize=1;strokeColor=none;fillColor=none;fontSize=17;" vertex="1" parent="1">
          <mxGeometry x="215" y="185" width="30" height="30" as="geometry" />
        </mxCell>
        <mxCell id="KL5Xce6iUJnAnncW0CI2-20" value="1" style="text;html=1;align=center;verticalAlign=middle;resizable=0;points=[];autosize=1;strokeColor=none;fillColor=none;fontSize=17;" vertex="1" parent="1">
          <mxGeometry x="215" y="215" width="30" height="30" as="geometry" />
        </mxCell>
        <mxCell id="KL5Xce6iUJnAnncW0CI2-21" value="2" style="text;html=1;align=center;verticalAlign=middle;resizable=0;points=[];autosize=1;strokeColor=none;fillColor=none;fontSize=17;" vertex="1" parent="1">
          <mxGeometry x="215" y="260" width="30" height="30" as="geometry" />
        </mxCell>
        <mxCell id="KL5Xce6iUJnAnncW0CI2-22" value="3&lt;br&gt;" style="text;html=1;align=center;verticalAlign=middle;resizable=0;points=[];autosize=1;strokeColor=none;fillColor=none;fontSize=17;" vertex="1" parent="1">
          <mxGeometry x="215" y="300" width="30" height="30" as="geometry" />
        </mxCell>
        <mxCell id="KL5Xce6iUJnAnncW0CI2-23" value="4" style="text;html=1;align=center;verticalAlign=middle;resizable=0;points=[];autosize=1;strokeColor=none;fillColor=none;fontSize=17;" vertex="1" parent="1">
          <mxGeometry x="215" y="330" width="30" height="30" as="geometry" />
        </mxCell>
        <mxCell id="KL5Xce6iUJnAnncW0CI2-24" value="5" style="text;html=1;align=center;verticalAlign=middle;resizable=0;points=[];autosize=1;strokeColor=none;fillColor=none;fontSize=17;" vertex="1" parent="1">
          <mxGeometry x="215" y="370" width="30" height="30" as="geometry" />
        </mxCell>
        <mxCell id="KL5Xce6iUJnAnncW0CI2-25" value="6" style="text;html=1;align=center;verticalAlign=middle;resizable=0;points=[];autosize=1;strokeColor=none;fillColor=none;fontSize=17;" vertex="1" parent="1">
          <mxGeometry x="215" y="410" width="30" height="30" as="geometry" />
        </mxCell>
        <mxCell id="KL5Xce6iUJnAnncW0CI2-26" value="7" style="text;html=1;align=center;verticalAlign=middle;resizable=0;points=[];autosize=1;strokeColor=none;fillColor=none;fontSize=17;" vertex="1" parent="1">
          <mxGeometry x="215" y="440" width="30" height="30" as="geometry" />
        </mxCell>
        <mxCell id="KL5Xce6iUJnAnncW0CI2-27" value="0" style="ellipse;whiteSpace=wrap;html=1;fontSize=17;" vertex="1" parent="1">
          <mxGeometry x="340" y="630" width="50" height="50" as="geometry" />
        </mxCell>
        <mxCell id="KL5Xce6iUJnAnncW0CI2-28" value="1" style="ellipse;whiteSpace=wrap;html=1;fontSize=17;" vertex="1" parent="1">
          <mxGeometry x="250" y="580" width="50" height="50" as="geometry" />
        </mxCell>
        <mxCell id="KL5Xce6iUJnAnncW0CI2-32" value="2" style="ellipse;whiteSpace=wrap;html=1;fontSize=17;" vertex="1" parent="1">
          <mxGeometry x="460" y="650" width="50" height="50" as="geometry" />
        </mxCell>
        <mxCell id="KL5Xce6iUJnAnncW0CI2-33" value="3" style="ellipse;whiteSpace=wrap;html=1;fontSize=17;" vertex="1" parent="1">
          <mxGeometry x="460" y="540" width="50" height="50" as="geometry" />
        </mxCell>
        <mxCell id="KL5Xce6iUJnAnncW0CI2-34" value="4" style="ellipse;whiteSpace=wrap;html=1;fontSize=17;" vertex="1" parent="1">
          <mxGeometry x="600" y="540" width="50" height="50" as="geometry" />
        </mxCell>
        <mxCell id="KL5Xce6iUJnAnncW0CI2-35" value="5" style="ellipse;whiteSpace=wrap;html=1;fontSize=17;" vertex="1" parent="1">
          <mxGeometry x="250" y="490" width="50" height="50" as="geometry" />
        </mxCell>
        <mxCell id="KL5Xce6iUJnAnncW0CI2-36" value="6" style="ellipse;whiteSpace=wrap;html=1;fontSize=17;" vertex="1" parent="1">
          <mxGeometry x="590" y="650" width="50" height="50" as="geometry" />
        </mxCell>
        <mxCell id="KL5Xce6iUJnAnncW0CI2-37" value="7" style="ellipse;whiteSpace=wrap;html=1;fontSize=17;" vertex="1" parent="1">
          <mxGeometry x="700" y="650" width="50" height="50" as="geometry" />
        </mxCell>
        <mxCell id="KL5Xce6iUJnAnncW0CI2-40" value="" style="endArrow=none;html=1;rounded=0;fontSize=17;exitX=1;exitY=0;exitDx=0;exitDy=0;entryX=0;entryY=1;entryDx=0;entryDy=0;" edge="1" parent="1" source="KL5Xce6iUJnAnncW0CI2-27" target="KL5Xce6iUJnAnncW0CI2-33">
          <mxGeometry width="50" height="50" relative="1" as="geometry">
            <mxPoint x="400" y="610" as="sourcePoint" />
            <mxPoint x="450" y="560" as="targetPoint" />
          </mxGeometry>
        </mxCell>
        <mxCell id="KL5Xce6iUJnAnncW0CI2-42" value="" style="endArrow=none;html=1;rounded=0;fontSize=17;exitX=0;exitY=0;exitDx=0;exitDy=0;entryX=0.94;entryY=0.72;entryDx=0;entryDy=0;entryPerimeter=0;" edge="1" parent="1" source="KL5Xce6iUJnAnncW0CI2-32" target="KL5Xce6iUJnAnncW0CI2-35">
          <mxGeometry width="50" height="50" relative="1" as="geometry">
            <mxPoint x="392.6776695296637" y="647.3223304703363" as="sourcePoint" />
            <mxPoint x="477.3223304703363" y="592.6776695296637" as="targetPoint" />
          </mxGeometry>
        </mxCell>
        <mxCell id="KL5Xce6iUJnAnncW0CI2-43" value="" style="endArrow=none;html=1;rounded=0;fontSize=17;exitX=0;exitY=0;exitDx=0;exitDy=0;entryX=1;entryY=1;entryDx=0;entryDy=0;" edge="1" parent="1" source="KL5Xce6iUJnAnncW0CI2-36" target="KL5Xce6iUJnAnncW0CI2-33">
          <mxGeometry width="50" height="50" relative="1" as="geometry">
            <mxPoint x="399.9976695296637" y="644.6423304703363" as="sourcePoint" />
            <mxPoint x="484.6423304703363" y="589.9976695296638" as="targetPoint" />
          </mxGeometry>
        </mxCell>
        <mxCell id="KL5Xce6iUJnAnncW0CI2-44" value="" style="endArrow=none;html=1;rounded=0;fontSize=17;exitX=0;exitY=0.5;exitDx=0;exitDy=0;entryX=1;entryY=0.5;entryDx=0;entryDy=0;" edge="1" parent="1" source="KL5Xce6iUJnAnncW0CI2-37" target="KL5Xce6iUJnAnncW0CI2-36">
          <mxGeometry width="50" height="50" relative="1" as="geometry">
            <mxPoint x="611" y="660" as="sourcePoint" />
            <mxPoint x="512.6776695296637" y="592.6776695296637" as="targetPoint" />
          </mxGeometry>
        </mxCell>
        <mxCell id="KL5Xce6iUJnAnncW0CI2-45" value="" style="endArrow=none;html=1;rounded=0;fontSize=17;exitX=0;exitY=0.5;exitDx=0;exitDy=0;entryX=1;entryY=0.5;entryDx=0;entryDy=0;" edge="1" parent="1" source="KL5Xce6iUJnAnncW0CI2-34" target="KL5Xce6iUJnAnncW0CI2-33">
          <mxGeometry width="50" height="50" relative="1" as="geometry">
            <mxPoint x="607.3223304703363" y="667.3223304703363" as="sourcePoint" />
            <mxPoint x="512.6776695296637" y="592.6776695296637" as="targetPoint" />
          </mxGeometry>
        </mxCell>
        <mxCell id="KL5Xce6iUJnAnncW0CI2-46" value="" style="endArrow=none;html=1;rounded=0;fontSize=17;exitX=0.5;exitY=0;exitDx=0;exitDy=0;entryX=1;entryY=0.5;entryDx=0;entryDy=0;" edge="1" parent="1" source="KL5Xce6iUJnAnncW0CI2-37">
          <mxGeometry width="50" height="50" relative="1" as="geometry">
            <mxPoint x="740" y="564.5" as="sourcePoint" />
            <mxPoint x="650" y="564.5" as="targetPoint" />
          </mxGeometry>
        </mxCell>
        <mxCell id="KL5Xce6iUJnAnncW0CI2-47" value="" style="endArrow=none;html=1;rounded=0;fontSize=17;exitX=0.02;exitY=0.68;exitDx=0;exitDy=0;entryX=1;entryY=0.5;entryDx=0;entryDy=0;exitPerimeter=0;" edge="1" parent="1" source="KL5Xce6iUJnAnncW0CI2-36">
          <mxGeometry width="50" height="50" relative="1" as="geometry">
            <mxPoint x="585" y="765.5" as="sourcePoint" />
            <mxPoint x="510" y="680" as="targetPoint" />
          </mxGeometry>
        </mxCell>
        <mxCell id="KL5Xce6iUJnAnncW0CI2-48" value="" style="endArrow=none;html=1;rounded=0;fontSize=17;entryX=1;entryY=0.5;entryDx=0;entryDy=0;" edge="1" parent="1" target="KL5Xce6iUJnAnncW0CI2-27">
          <mxGeometry width="50" height="50" relative="1" as="geometry">
            <mxPoint x="460" y="670" as="sourcePoint" />
            <mxPoint x="520" y="690" as="targetPoint" />
          </mxGeometry>
        </mxCell>
        <mxCell id="KL5Xce6iUJnAnncW0CI2-49" value="" style="endArrow=none;html=1;rounded=0;fontSize=17;exitX=0.06;exitY=0.28;exitDx=0;exitDy=0;exitPerimeter=0;" edge="1" parent="1" source="KL5Xce6iUJnAnncW0CI2-27">
          <mxGeometry width="50" height="50" relative="1" as="geometry">
            <mxPoint x="470" y="680" as="sourcePoint" />
            <mxPoint x="290" y="620" as="targetPoint" />
          </mxGeometry>
        </mxCell>
        <mxCell id="KL5Xce6iUJnAnncW0CI2-50" value="" style="endArrow=none;html=1;rounded=0;fontSize=17;entryX=0.5;entryY=1;entryDx=0;entryDy=0;" edge="1" parent="1" source="KL5Xce6iUJnAnncW0CI2-28" target="KL5Xce6iUJnAnncW0CI2-35">
          <mxGeometry width="50" height="50" relative="1" as="geometry">
            <mxPoint x="353" y="654" as="sourcePoint" />
            <mxPoint x="300" y="630" as="targetPoint" />
          </mxGeometry>
        </mxCell>
      </root>
    </mxGraphModel>
  </diagram>
</mxfile>
